<svg xmlns="http://www.w3.org/2000/svg" width="80" height="66.654" viewBox="0 0 80 66.654">
  <g id="Group_29" data-name="Group 29" transform="translate(-144 -1424)">
    <path id="Path_37" data-name="Path 37" d="M186.471,87.9l.39-1.56a2,2,0,0,1,.226-.545l.838-1.4a2.024,2.024,0,0,1,.116-.172l.9-1.2a2.061,2.061,0,0,1,.186-.215l.818-.819a2.02,2.02,0,0,1,.694-.452l1.973-.764a2.006,2.006,0,0,1,.685-.135l21.387-.423a2.006,2.006,0,0,1,.556.067l2.093.558a2,2,0,0,1,.467.19l.962.541a2.021,2.021,0,0,1,.385.282l1.042.972a2,2,0,0,1,.166.175l1.068,1.268a2,2,0,0,1,.369.658l.195.584a1.945,1.945,0,0,0,.073.189l.565,1.256a2,2,0,0,1,.177.823v39.163a2.013,2.013,0,0,1-.074.541l-.535,1.911-.382,1.222a1.99,1.99,0,0,1-.136.329l-.927,1.776c-.023.045-.045.091-.065.138l-1.16,2.708a2.011,2.011,0,0,1-.3.494l-1.554,1.864s-1.48,1.654-1.741,1.915c-.225.225-1.164,1.1-1.417,1.334-.043.04-.086.076-.132.113l-2.281,1.774a11.909,11.909,0,0,1-1.28.832c-.268.108-1.487.738-1.766.882-.039.02-.078.038-.118.056l-1.734.758a1.967,1.967,0,0,1-.308.106l-2.844.725a1.891,1.891,0,0,1-.192.039c-.492.075-2.719.411-2.881.411h-5.992a2.009,2.009,0,0,1-.854-.191l-.139-.066a2,2,0,0,1-.795-.673l-.133-.191a1.99,1.99,0,0,1-.184-.327h0a2,2,0,0,1-.173-.785l-.1-6.822a2,2,0,0,1,.587-1.449l.6-.6a2,2,0,0,1,1.362-.587l5.587-.155a2,2,0,0,0,.35-.041l1.382-.286a2.008,2.008,0,0,0,.4-.128l1.415-.622a2,2,0,0,0,.584-.391l1.575-1.514,1.479-1.37a2.018,2.018,0,0,0,.286-.33l.9-1.3a1.927,1.927,0,0,0,.121-.2l.918-1.72.161-.322a2.01,2.01,0,0,0,.211-.862l.1-5.669a2,2,0,0,0-.459-1.313l-.587-.711a1.956,1.956,0,0,0-.209-.218,9.953,9.953,0,0,0-1.587-1.234c-.329-.11-11.688-.22-13.86-.24a1.989,1.989,0,0,1-.681-.127,14.5,14.5,0,0,0-1.681-.545c-.608-.122-1.58-1.155-1.944-1.337a11.138,11.138,0,0,1-1.528-1.625,1.991,1.991,0,0,1-.2-.289l-.863-1.535a1.993,1.993,0,0,1-.209-.546L186.459,109a1.993,1.993,0,0,1-.048-.437V88.392A2.015,2.015,0,0,1,186.471,87.9Z" transform="translate(1.202 1343.772)" fill="#094e49"/>
    <path id="Path_38" data-name="Path 38" d="M186.471,87.9l.39-1.56a2,2,0,0,1,.226-.545l.838-1.4a2.024,2.024,0,0,1,.116-.172l.9-1.2a2.061,2.061,0,0,1,.186-.215l.818-.819a2.02,2.02,0,0,1,.694-.452l1.973-.764a2.006,2.006,0,0,1,.685-.135l21.387-.423a2.006,2.006,0,0,1,.556.067l2.093.558a2,2,0,0,1,.467.19l.962.541a2.021,2.021,0,0,1,.385.282l1.042.972a2,2,0,0,1,.166.175l1.068,1.268a2,2,0,0,1,.369.658l.195.584a1.945,1.945,0,0,0,.073.189l.565,1.256a2,2,0,0,1,.177.823v39.163a2.013,2.013,0,0,1-.074.541l-.535,1.911-.382,1.222a1.99,1.99,0,0,1-.136.329l-.927,1.776c-.023.045-.045.091-.065.138l-1.16,2.708a2.011,2.011,0,0,1-.3.494l-1.554,1.864s-1.48,1.654-1.741,1.915c-.225.225-1.164,1.1-1.417,1.334-.043.04-.086.076-.132.113l-2.281,1.774a11.909,11.909,0,0,1-1.28.832c-.268.108-1.487.738-1.766.882-.039.02-.078.038-.118.056l-1.734.758a1.967,1.967,0,0,1-.308.106l-2.844.725a1.891,1.891,0,0,1-.192.039c-.492.075-2.719.411-2.881.411h-5.992a2.009,2.009,0,0,1-.854-.191l-.139-.066a2,2,0,0,1-.795-.673l-.133-.191a1.99,1.99,0,0,1-.184-.327h0a2,2,0,0,1-.173-.785l-.1-6.822a2,2,0,0,1,.587-1.449l.6-.6a2,2,0,0,1,1.362-.587l5.587-.155a2,2,0,0,0,.35-.041l1.382-.286a2.008,2.008,0,0,0,.4-.128l1.415-.622a2,2,0,0,0,.584-.391l1.575-1.514,1.479-1.37a2.018,2.018,0,0,0,.286-.33l.9-1.3a1.927,1.927,0,0,0,.121-.2l.918-1.72.161-.322a2.01,2.01,0,0,0,.211-.862l.1-5.669a2,2,0,0,0-.459-1.313l-.587-.711a1.956,1.956,0,0,0-.209-.218,9.953,9.953,0,0,0-1.587-1.234c-.329-.11-11.688-.22-13.86-.24a1.989,1.989,0,0,1-.681-.127,14.5,14.5,0,0,0-1.681-.545c-.608-.122-1.58-1.155-1.944-1.337a11.138,11.138,0,0,1-1.528-1.625,1.991,1.991,0,0,1-.2-.289l-.863-1.535a1.993,1.993,0,0,1-.209-.546L186.459,109a1.993,1.993,0,0,1-.048-.437V88.392A2.015,2.015,0,0,1,186.471,87.9Z" transform="translate(-42.411 1343.772)" fill="#094e49"/>
  </g>
</svg>
