<svg xmlns="http://www.w3.org/2000/svg" viewBox="0 0 81.95 91.45"><defs><style>.cls-1{fill:#1d1d1b;}</style></defs><g id="Laag_2" data-name="Laag 2"><g id="Laag_1-2" data-name="Laag 1"><path class="cls-1" d="M28.33,45l-.59-19.5a1,1,0,0,1,.36-.78L37.6,17a1,1,0,0,1,.93-.15L49,20.71a1,1,0,0,1,.63.86L50.78,44a1,1,0,0,1-.91,1L29.34,46A1,1,0,0,1,28.33,45Z"/><path class="cls-1" d="M40.11,15,60.44.18a1,1,0,0,1,.91-.12l13.36,5.1a1,1,0,0,0,1.2-.46l1.77-3.48A1,1,0,0,1,79.06.91a1,1,0,0,1,.44.63L81.94,20.6a1,1,0,0,1-.39.9l-15,10.93a1,1,0,0,1-1.49-1l1.16-4a1,1,0,0,0-.59-1.17L40.35,16.74a1,1,0,0,1-.55-1.3A.93.93,0,0,1,40.11,15Z"/><path class="cls-1" d="M30,47.13c4.25-.17,15.85-.87,19.24-1.08a1,1,0,0,1,1,.89l1.48,20.22a.93.93,0,0,1-.37.83L41,76a.93.93,0,0,1-1,.1l-9.81-4.88a1,1,0,0,1-.53-.81c-.15-3-.84-16.94-1.07-21.67A1.55,1.55,0,0,1,30,47.13Z"/><path class="cls-1" d="M.44,69.6,15,60.15a1,1,0,0,1,1.39,1.23l-1.19,2.4a1,1,0,0,0,.43,1.29L38.7,76.6A1,1,0,0,1,39.07,78a1.32,1.32,0,0,1-.25.28l-18.71,13a1,1,0,0,1-.92.1L5.37,85.6a1,1,0,0,0-1.23.46l-1.2,2.4a1,1,0,0,1-1.38.29,1,1,0,0,1-.44-.66L0,70.5A1,1,0,0,1,.44,69.6Z"/></g></g></svg>